<?xml version="1.0" encoding="utf-8" ?>
<svg xmlns="http://www.w3.org/2000/svg" xmlns:xlink="http://www.w3.org/1999/xlink" width="1024" height="1024">
	<path fill="#F28315" d="M839.939 542.396C842.052 542.579 844.065 542.885 845.596 544.499C846.615 545.572 847.15 546.883 846.956 548.372C846.676 550.52 845.263 551.78 843.677 553.073C841.416 553.037 838.993 552.864 837.387 551.056C836.458 550.01 836.251 548.965 836.381 547.605C836.601 545.306 838.339 543.843 839.939 542.396Z"/>
	<path fill="#F28315" d="M935.601 320.53C936.23 320.503 936.605 320.473 937.261 320.509C939.014 320.606 940.688 321.235 941.759 322.693C942.467 323.656 942.723 324.808 942.587 325.984C942.303 328.453 940.855 329.77 939 331.234C938.831 331.225 938.662 331.224 938.494 331.209C936.3 331.016 934.283 330.486 932.942 328.584C932.149 327.459 932.017 326.376 932.211 325.044C932.52 322.92 934.022 321.756 935.601 320.53Z"/>
	<path fill="#F28315" d="M906.164 776.964C906.782 776.951 907.39 776.933 908.006 777C909.917 777.209 911.79 778.067 912.969 779.627C913.811 780.742 914.127 782.131 913.922 783.507C913.576 785.835 912.111 786.923 910.384 788.306C910.112 788.346 909.842 788.393 909.569 788.426C907.908 788.633 905.847 787.962 904.655 786.738C903.374 785.424 902.881 783.677 903.027 781.871C903.215 779.558 904.547 778.432 906.164 776.964Z"/>
	<path fill="#EC6B12" d="M204.559 519.895C205.44 519.974 206.299 520.076 207.161 520.286C208.94 520.718 210.451 522.107 211.308 523.702C212.06 525.102 212.264 526.683 211.671 528.186C210.924 530.082 209.389 530.98 207.633 531.81C207.053 531.766 206.474 531.719 205.898 531.637C204.008 531.366 202.136 530.428 201.019 528.832C200.101 527.521 200.002 526.098 200.361 524.58C200.89 522.348 202.788 521.105 204.559 519.895Z"/>
	<path fill="#F28315" d="M552.632 580.504C552.779 580.499 552.926 580.488 553.074 580.488C555.908 580.489 558.54 581.127 560.546 583.277C561.68 584.492 562.323 586.036 562.123 587.711C561.831 590.156 560.159 591.55 558.288 592.914C558.043 592.934 557.797 592.958 557.551 592.975C555.16 593.137 552.73 592.756 551.009 590.911C549.851 589.668 549.283 588.223 549.319 586.53C549.378 583.731 550.767 582.387 552.632 580.504Z"/>
	<path fill="#EC6B12" d="M349.174 916.628C353.184 898.752 355.578 880.505 360.285 862.787L360.54 863.456C364.56 873.757 370.937 878.273 369.852 890.694C369.834 890.894 369.826 891.093 369.804 891.292C369.592 893.214 367.191 897.236 365.606 898.3C365.497 898.373 365.374 898.423 365.258 898.485C364.868 896.707 365.814 895.3 366.6 893.74C368.566 889.839 368.763 885.25 367.453 881.101C366.055 876.673 363.207 872.715 361.245 868.516C357.639 885.191 355.341 902.144 350.957 918.647C350.215 918.045 349.76 917.384 349.174 916.628Z"/>
	<path fill="#F6A814" d="M869.496 115.271C870.545 117.587 870.961 120.147 872.171 122.424C875.237 128.194 880.905 129.05 886.655 130.639C883.664 131.559 880.12 132.36 877.416 133.943C872.971 136.545 870.929 142.867 869.783 147.636C869.601 148.392 869.826 147.996 868.917 148.584C868.064 145.176 867.304 141.499 865.526 138.437C862.163 132.641 855.779 131.729 849.822 130.299C853.977 130.051 858.566 130.033 862.273 127.897C866.835 125.267 868.089 119.945 869.496 115.271Z"/>
	<path fill="#EC6B12" d="M283.502 74.356C285.798 76.641 287.842 78.9876 289.847 81.5313C293.301 86.5233 296.287 91.5465 295.004 97.8942C293.869 103.509 289.857 109.013 286.217 113.314C284.498 115.976 285.17 128.241 285.133 131.973L283.441 130.875C282.902 125.764 283.319 120.393 283.29 115.245Q283.231 94.7993 283.502 74.356ZM285.121 79.0898Q285.329 89.2293 285.138 99.3692C285.097 103.476 284.665 108.433 285.364 112.469C288.722 108.443 292.38 102.243 293.107 97.0073C293.844 91.6996 291.789 87.7252 288.755 83.6072C287.491 82.1359 286.221 80.6913 285.121 79.0898Z"/>
	<path fill="#FDC835" d="M439.536 900.321C442.783 904.494 442.256 911.43 445.245 915.898C448.633 920.963 457.57 922.211 463.085 923.141C456.822 924.311 446.819 926.069 443.867 932.6C442.903 934.732 442.691 937.483 442.223 939.775C441.86 941.551 441.383 944.185 440.277 945.614C440.144 945.785 439.998 945.947 439.859 946.113C438.872 940.84 437.879 935.274 434.521 930.92C429.572 924.503 421.746 923.896 414.349 922.935C420.023 922.513 427.307 922.094 432.059 918.678C437.671 914.644 438.432 906.628 439.536 900.321Z"/>
	<path fill="#FDC835" d="M102.607 488.344C104.791 493.681 104.2 500.345 107.661 505.234C111.269 510.33 120.917 511.199 126.712 512.223C124.01 512.658 121.312 513.122 118.661 513.811C107.596 516.687 105.47 522.618 103.445 532.767C103.221 533.887 103.243 535.385 102.576 536.32C102.495 536.434 102.384 536.524 102.287 536.626C101.007 531.043 99.8041 524.771 96.1913 520.145C91.4056 514.018 83.6405 513.438 76.4983 512.703C81.8052 511.396 87.9672 510.333 92.7638 507.672C99.8803 503.724 100.639 495.379 102.607 488.344Z"/>
	<path fill="#FDC835" d="M127.616 689.8C131.37 694.205 128.931 702.55 132.562 707.688C136.703 713.55 145.803 715.463 152.433 716.608C148.246 717.007 143.735 717.278 139.802 718.884C130.683 722.606 130.719 732.666 127.455 740.55C127.394 740.698 127.329 740.845 127.267 740.992C126.668 735.512 125.405 729.033 122.022 724.563C117.36 718.404 109.231 717.05 102.08 715.983C107.944 715.206 114.186 714.548 119.009 710.765C125.538 705.642 126.562 697.441 127.616 689.8Z"/>
	<path fill="#0E3C28" d="M542.483 894.3C552.859 913.225 571.882 960.086 589.654 971.636C589.697 972.594 589.783 972.219 589.593 972.786Q581 971.652 572.439 970.291C568.532 962.119 564.045 954.234 560.225 946.006C552.74 929.878 546.437 913.29 540.454 896.558L542.483 894.3Z"/>
	<path fill="#FDC835" d="M895.14 222.348C896.787 223.942 898.389 236.395 900.418 240.011C905.784 249.576 919.954 250.188 929.494 252.661C921.21 252.186 911.834 252.706 905.17 258.298C898.756 263.68 897.483 272.531 896.779 280.372L896.521 280.801C894.068 278.92 893.738 268.035 891.603 264.647C891.493 264.473 891.373 264.305 891.26 264.132C890.794 263.423 890.339 262.714 889.843 262.025C883.531 253.26 872.657 253.096 862.932 251.446C870.006 251.034 878.452 250.26 884.573 246.366C892.791 241.137 893.346 230.989 895.14 222.348Z"/>
	<path fill="#339085" d="M893.053 428.426L895.032 429.008L895.365 430.187C909.662 432.792 924.653 434.063 938.642 437.921L938.083 439.741C923.366 437.95 908.814 433.887 894.077 432.335C889.082 444.027 885.957 457.085 882.163 469.212C880.292 475.195 878.694 482.078 875.113 487.303C872.883 490.558 869.701 493.073 865.717 493.659C861.14 494.332 856.116 492.794 852.531 489.914C849.77 487.696 847.824 484.729 847.571 481.136C847.413 478.89 848.004 476.596 849.563 474.92C852.015 472.284 856.116 471.59 859.535 471.413C865.876 471.086 871.185 473.253 875.891 477.478L876.357 477.905C881.91 461.416 887.669 444.966 893.053 428.426Z"/>
	<path fill="#81C67C" d="M858.463 473.073C861.564 472.843 864.406 472.859 867.403 473.878C870.554 474.949 873.666 477.032 874.982 480.203C875.726 481.995 875.763 484.063 874.901 485.822C873.349 488.987 869.843 490.557 866.737 491.729C863.342 492.053 860.155 491.694 857.006 490.301C853.913 488.933 850.782 486.538 849.609 483.247C849.036 481.64 849.041 479.904 849.808 478.361C851.455 475.044 855.19 474.028 858.463 473.073Z"/>
	<path fill="#F6A814" d="M285.133 131.973C285.43 138.06 285.624 144.647 282.757 150.22Q282.351 150.992 281.869 151.72Q281.387 152.448 280.834 153.123Q280.281 153.799 279.664 154.415Q279.046 155.032 278.369 155.583Q277.692 156.134 276.963 156.614Q276.234 157.094 275.461 157.499Q274.687 157.903 273.877 158.227Q273.067 158.552 272.228 158.793C267.65 160.112 262.255 159.253 258.166 156.862Q257.401 156.411 256.686 155.885Q255.97 155.359 255.311 154.764Q254.652 154.169 254.056 153.51Q253.459 152.852 252.932 152.137Q252.405 151.423 251.953 150.658Q251.5 149.894 251.127 149.089Q250.753 148.283 250.462 147.444Q250.171 146.605 249.966 145.741Q249.784 144.939 249.682 144.123Q249.58 143.307 249.559 142.485Q249.537 141.663 249.598 140.843Q249.658 140.023 249.799 139.213Q249.94 138.403 250.16 137.611Q250.38 136.818 250.678 136.052Q250.975 135.285 251.347 134.552Q251.719 133.818 252.161 133.125C254.924 128.701 259.598 125.391 264.721 124.355C272.107 122.861 277.727 126.876 283.441 130.875L285.133 131.973Z"/>
	<path fill="#F6A814" d="M350.957 918.647C349.75 925.336 348.568 932.294 343.719 937.442C340.378 940.988 336.115 943.01 331.212 943.025C326.009 943.04 320.919 940.69 317.32 936.977Q316.683 936.331 316.112 935.625Q315.542 934.92 315.044 934.161Q314.547 933.402 314.127 932.598Q313.707 931.794 313.369 930.952Q313.031 930.11 312.778 929.238Q312.525 928.367 312.359 927.475Q312.194 926.583 312.117 925.678Q312.041 924.774 312.055 923.867C312.157 918.398 314.855 913.646 318.831 910.007C322.065 907.047 326.397 905.097 330.834 905.316C338.639 905.702 343.319 911.342 348.258 916.612L349.174 916.628C349.76 917.384 350.215 918.045 350.957 918.647Z"/>
	<path fill="#0E3C28" d="M484.537 520.221C492.728 521.41 502.025 519.627 510.198 518.496C510.042 527.194 509.406 535.879 509.12 544.573C508.804 554.14 508.834 563.758 508.341 573.314C506.708 576.316 506.928 579.389 506.9 582.705C501.591 571.704 496.232 564.668 489.49 554.851C487.418 551.835 485.612 548.65 483.489 545.669C483.42 537.198 484.186 528.688 484.537 520.221Z"/>
	<path fill="#EC6B12" d="M819.902 337.551C822.916 337.489 825.978 337.419 828.729 338.854C830.43 339.741 831.608 341.156 832.094 343.02C833.545 348.584 828.169 356.432 825.459 361.106L825.845 361.765C830.842 362.564 838.493 354.529 845.391 355.353C846.905 355.534 848.181 356.258 849.014 357.563C850.654 360.131 850.916 365.288 849.966 368.141C849.431 369.748 848.466 370.867 846.929 371.612C839.655 375.139 831.618 367.283 825.139 365.015C824.942 364.947 824.744 364.885 824.547 364.82C827.028 368.791 830.124 373.043 831.549 377.536C832.327 379.991 832.632 382.783 831.295 385.109C829.709 387.87 827.169 388.659 824.288 389.553C823.754 389.549 823.557 389.562 823.065 389.518C820.113 389.254 817.026 387.667 815.163 385.347C809.194 377.907 820.435 372.12 821.021 365.498C819.205 364.303 807.188 372.528 801.751 371.052C799.551 370.456 797.939 368.778 796.878 366.823C795.322 363.957 795.16 361.025 796.256 357.966Q796.413 357.528 796.616 357.109Q796.819 356.69 797.066 356.296Q797.312 355.901 797.599 355.535Q797.887 355.168 798.211 354.835Q798.536 354.501 798.894 354.204Q799.252 353.907 799.64 353.65Q800.028 353.393 800.441 353.178Q800.854 352.964 801.288 352.795C808.818 349.833 813.969 359.082 819.59 361.49L820.108 361.039C820.021 355.037 814.786 349.71 814.331 343.289C815.362 340.444 817.472 339.148 819.902 337.551Z"/>
	<path fill="#F6A814" d="M929.658 541.436C929.741 543.322 929.639 545.688 930.187 547.492C932.578 555.367 937.993 560.846 934.772 569.78C931.95 577.606 925.07 585.494 917.519 588.982C923.067 584.214 929.345 578.336 932.182 571.454C935.5 563.406 932.039 557.043 928.921 549.797C926.751 554.819 925.436 560.319 923.778 565.536C922.733 570.492 920.076 581.512 917.962 585.821C917.921 585.988 917.877 586.154 917.839 586.322C916.047 594.178 923.766 598.56 918.489 609.188C916.867 612.456 914.623 615.049 911.51 616.979C906.779 619.912 901.602 620.499 896.238 619.23C891.066 618.006 886.552 614.95 883.856 610.327Q883.611 609.915 883.387 609.49Q883.163 609.066 882.962 608.63Q882.76 608.195 882.582 607.749Q882.403 607.304 882.247 606.85Q882.092 606.396 881.959 605.935Q881.827 605.474 881.719 605.006Q881.611 604.539 881.527 604.067Q881.443 603.594 881.383 603.118Q881.324 602.642 881.289 602.163Q881.254 601.685 881.243 601.205Q881.233 600.725 881.247 600.246Q881.262 599.766 881.301 599.288Q881.34 598.81 881.403 598.334Q881.467 597.859 881.555 597.387Q881.643 596.915 881.755 596.449Q881.867 595.982 882.003 595.522Q882.161 595.01 882.346 594.506Q882.53 594.002 882.739 593.509Q882.949 593.015 883.183 592.533Q883.417 592.05 883.675 591.58Q883.933 591.11 884.214 590.653Q884.496 590.197 884.8 589.755Q885.104 589.313 885.43 588.888Q885.756 588.462 886.103 588.053Q886.45 587.644 886.818 587.254Q887.185 586.863 887.571 586.491Q887.958 586.119 888.362 585.768Q888.767 585.416 889.189 585.085Q889.611 584.754 890.049 584.445Q890.487 584.136 890.941 583.849Q891.394 583.562 891.861 583.299Q892.328 583.036 892.808 582.796C897.276 580.608 902.256 580.446 906.88 582.258C910.058 583.504 912.976 585.511 915.424 587.877C915.863 581.62 919.296 573.083 921.094 566.957C922.203 558.66 925.4 548.589 929.658 541.436Z"/>
	<path fill="#0C7572" d="M900.702 407.583Q925.083 410.582 949.28 414.813C944.581 430.715 938.854 446.22 933.622 461.941C930.94 470 926.584 487.708 922.281 494.194C921.983 494.614 921.692 495.039 921.367 495.438C919.011 498.325 915.264 500.244 911.554 500.505C906.924 500.832 900.85 498.746 897.456 495.57C895.293 493.547 893.848 490.685 893.92 487.682C893.986 484.906 895.323 482.431 897.313 480.549C900.45 477.581 904.668 476.235 908.947 476.435C915.119 476.723 919.714 479.746 923.77 484.135C925.394 478.223 938.832 442.127 938.083 439.741L938.642 437.921C924.653 434.063 909.662 432.792 895.365 430.187L895.032 429.008L893.053 428.426Q896.971 418.039 900.702 407.583ZM899.545 417.903C897.8 421.514 896.816 425.417 895.032 429.008L895.365 430.187C909.662 432.792 924.653 434.063 938.642 437.921C941.089 435.486 942.354 427.436 943.292 423.916C928.802 421.395 913.933 420.655 899.545 417.903Z"/>
	<path fill="#81C67C" d="M901.989 478.529C911.974 478.405 915.004 479.432 923.153 485.211C923.008 488.468 922.127 491.355 920.947 494.372C920.3 495.238 919.537 496.077 918.658 496.716C915.553 498.972 911.447 499.453 907.737 498.855C903.567 498.182 899.279 496.042 896.826 492.506C895.477 490.559 894.863 488.277 895.385 485.939C896.221 482.194 899.013 480.495 901.989 478.529Z"/>
	<path fill="#EC6B12" d="M158.479 570.071C162.761 569.957 165.993 570.633 169.768 572.728C170.195 573.4 170.625 574.063 170.983 574.775C175.791 584.333 166.562 597.042 163.34 606.014C171.67 601.157 177.453 595.896 187.03 593.238C190.883 594.771 193.646 596.679 195.434 600.566C196.968 603.9 197.091 607.988 195.628 611.369C194.517 613.936 192.508 615.866 189.876 616.826C181.391 619.918 170.788 612.322 163.255 608.942C165.919 615.403 169.752 621.527 171.665 628.271C172.539 631.351 172.939 634.969 171.206 637.843C169.421 640.802 166.51 641.767 163.345 642.618C160.49 642.593 157.732 642.501 155.124 641.195C152.919 640.09 151.338 638.309 150.639 635.931C148.184 627.581 155.625 616.646 159.424 609.617C151.293 612.583 144.158 616.766 135.58 618.566C134.003 618.179 132.454 617.783 131.054 616.931C127.797 614.95 125.425 611.384 124.741 607.653C124.201 604.708 124.684 601.56 126.445 599.093C128.04 596.859 130.541 595.424 133.229 594.968C141.745 593.521 153.131 601.009 159.648 605.828C155.841 597.17 151.243 589.036 148.274 580.007C148.774 578.493 149.279 576.988 150.085 575.604C152.089 572.168 154.771 571.031 158.479 570.071Z"/>
	<path fill="#71A842" d="M218.454 293.748Q215.361 293.26 212.31 292.559C190.641 287.623 174.6 277.46 162.761 258.397C150.052 237.933 144.355 204.874 149.852 181.428C153.474 189.445 162.091 201.459 167.09 209.32C180.688 230.704 194.773 251.834 207.819 273.56C211.352 279.444 217.087 287.069 218.454 293.748Z"/>
	<path fill="#81C67C" d="M770.189 750.29C776.197 742.059 781.771 733.42 788.4 725.672C807.722 703.09 835.739 685.446 864.993 679.946C890.352 675.178 922.498 678.949 944.16 693.792C932.155 694.713 920.136 694.24 908.14 695.167C877.316 697.549 844.073 705.145 816.526 719.516C810.454 722.684 804.968 726.539 799.245 730.259C788.544 734.608 779.682 743.85 770.189 750.29Z"/>
	<path fill="#81C67C" d="M149.852 181.428C153.544 180.704 170.112 192.438 173.973 195.057C202.33 214.291 223.357 242.952 229.59 276.962C233.033 295.745 232.256 314.787 226.087 332.909C225.786 324.64 225.688 315.57 223.274 307.613C221.854 302.929 219.464 298.572 218.454 293.748C217.087 287.069 211.352 279.444 207.819 273.56C194.773 251.834 180.688 230.704 167.09 209.32C162.091 201.459 153.474 189.445 149.852 181.428Z"/>
	<path fill="#0E3C28" d="M525.895 739.978C529.37 754.908 544.719 821.553 551.514 829.849C550.398 833.262 553.253 840.536 554.853 843.813C555.392 844.918 555.885 845.757 556.794 846.582C561.673 861.861 567.976 877.356 574.387 892.06C580.8 885.268 588.182 878.779 595.978 873.628L596.335 875.077Q585.055 883.323 574.877 892.895Q583.379 914.921 593.509 936.247Q603.639 957.574 615.34 978.08C607.279 976.159 599.099 974.244 590.884 973.124C591.15 972.774 591.547 972.491 591.683 972.073C591.862 971.526 583.056 953.217 581.931 950.772C570.953 926.909 562.382 902.718 554.079 877.839C540.362 836.737 528.198 795.569 524.191 752.205C523.82 748.197 523.181 743.238 525.895 739.978Z"/>
	<path fill="#71A842" d="M944.16 693.792L944.485 694.487C941.965 699.005 937.211 702.942 933.363 706.331C917.588 720.229 900.452 731.727 880.002 737.597C853.713 745.142 823.485 743.287 799.245 730.259C804.968 726.539 810.454 722.684 816.526 719.516C844.073 705.145 877.316 697.549 908.14 695.167C920.136 694.24 932.155 694.713 944.16 693.792Z"/>
	<path fill="#125A7D" d="M785.371 93.6544C785.394 93.6762 785.422 93.6939 785.44 93.7198C789.444 99.4336 792.548 106.074 795.86 112.225Q804.621 128.602 813.546 144.892Q821.955 160.279 830.611 175.528C834.079 181.583 838.127 187.622 841.032 193.957C842.694 197.581 843.734 201.5 843.543 205.512C843.189 212.952 839.02 219.592 833.622 224.489C827.547 230 818.855 233.807 810.561 233.209C805.76 232.863 801.163 230.932 798.133 227.092C794.874 222.962 793.969 217.339 794.725 212.231C795.902 204.281 801.133 197.265 807.604 192.711C815.532 187.133 824.072 186.418 833.361 188.078C826.081 173.524 817.592 159.407 809.628 145.206C806.29 139.202 802.896 133.227 799.831 127.078C783.764 139.719 768.498 153.415 752.229 165.777C755.823 173.135 772.329 211.677 771.775 217.478L771.066 217.48C769.616 215.977 768.455 214.346 767.532 212.465C764.846 206.987 763.061 200.658 760.687 194.986Q752.368 175.659 743.556 156.551C740.66 150.291 736.064 144.198 734.007 137.652C740.869 130.857 748.601 125.049 756.025 118.897Q770.83 106.429 785.371 93.6544ZM790.289 109.037C774.728 122.37 758.919 135.961 744.22 150.235C745.955 154.448 747.783 158.859 750.424 162.595C751.297 162.755 750.976 162.881 751.457 162.557C767.286 150.158 782.749 136.982 798.111 124.007C795.901 119.45 793.659 112.775 790.289 109.037Z"/>
	<path fill="#455412" d="M69.834 273.596L75.4047 276.531L74.9279 278.384C75.1354 281.513 81.6217 286.061 82.1682 290.119C81.0012 297.396 81.8788 308.631 85.2182 315.273L82.3946 315.238C83.4521 315.834 84.5385 316.397 85.5366 317.088C84.2874 320.729 91.3133 345.212 92.9276 349.094C92.9661 349.187 93.0336 349.265 93.0866 349.35L93.9088 350.832C95.9081 357.227 108.82 384.375 113.382 386.731C113.965 387.032 114.559 387.304 115.157 387.573L114.575 388.408C128.42 392.655 179.71 408.8 189.363 416.408C195.484 421.232 199.95 428.613 204.39 434.934C210.096 439.878 216.05 448.071 218.676 455.146L218.845 455.59C215.239 456.266 211.445 456.706 207.792 457.057C179.794 459.746 150.14 451.81 128.374 433.719C84.1228 396.942 74.9075 327.39 69.834 273.596Z"/>
	<path fill="#677723" d="M204.39 434.934C200.32 435.209 195.362 434.197 191.312 433.538C170.883 430.21 150.918 423.624 134.294 410.932C130.567 408.086 114.346 392.795 113.742 388.366L114.575 388.408C128.42 392.655 179.71 408.8 189.363 416.408C195.484 421.232 199.95 428.613 204.39 434.934Z"/>
	<path fill="#125A7D" d="M218.86 755.515L246.491 817.351C251.167 828.056 256.324 838.796 260.091 849.852C263.241 851.479 266.091 853.107 268.657 855.62C272.486 859.369 274.848 864.149 274.776 869.573C274.688 876.135 271.317 882.412 266.706 886.941Q266.164 887.465 265.596 887.962Q265.028 888.459 264.436 888.927Q263.844 889.395 263.229 889.833Q262.614 890.27 261.979 890.677Q261.343 891.083 260.688 891.458Q260.033 891.832 259.36 892.173Q258.687 892.514 257.997 892.822Q257.308 893.129 256.604 893.401Q255.901 893.674 255.184 893.91Q254.468 894.147 253.741 894.348Q253.013 894.549 252.277 894.714Q251.54 894.878 250.797 895.005Q250.053 895.133 249.304 895.223Q248.555 895.313 247.802 895.366Q247.049 895.419 246.295 895.434Q245.54 895.449 244.786 895.426C238.893 895.193 233.295 893.011 229.364 888.509Q228.71 887.756 228.133 886.943Q227.556 886.129 227.06 885.264Q226.564 884.399 226.155 883.489Q225.745 882.58 225.426 881.635Q225.107 880.69 224.881 879.719Q224.655 878.747 224.524 877.759Q224.393 876.77 224.359 875.773Q224.325 874.776 224.388 873.781C224.874 866.878 228.442 860.229 233.635 855.713C240.32 849.901 247.692 848.729 256.177 849.357C247.887 830.093 238.666 811.177 230.608 791.834C220.343 800.053 209.443 807.419 198.677 814.956C192.747 819.108 185.619 823.234 180.67 828.496L181.124 830.271Q187.461 845.636 194.209 860.826C199.282 872.13 206.145 884.09 208.443 896.293Q208.603 897.117 208.707 897.95Q208.811 898.783 208.858 899.621Q208.906 900.459 208.897 901.298Q208.888 902.138 208.823 902.975Q208.757 903.811 208.636 904.642Q208.514 905.473 208.337 906.293Q208.159 907.113 207.927 907.92Q207.695 908.727 207.409 909.516C204.755 916.886 198.577 922.713 191.479 925.816C184.334 928.939 176.214 929.288 168.945 926.303C163.842 924.207 159.463 920.404 157.339 915.239C154.982 909.507 155.719 902.869 158.318 897.345C161.67 890.224 168.121 884.799 175.509 882.257C184.364 879.209 192.606 881.885 200.575 885.842C196.265 873.985 190.73 862.661 185.777 851.072C180.522 838.776 175.764 826.262 170.418 814.007C167.721 807.824 164.314 801.94 161.864 795.657C170.133 789.704 178.637 784.082 186.927 778.156C197.536 770.572 207.966 762.688 218.86 755.515ZM221.609 771.49C205.111 783.591 188.961 796.5 171.587 807.335C172.914 811.283 176.203 822.914 179.398 825.044C195.923 812.782 212.692 801.159 229.613 789.466C228.26 785.45 224.976 774.14 221.869 771.618C221.794 771.557 221.696 771.533 221.609 771.49Z"/>
	<path fill="#1F6F48" d="M483.489 545.669C485.612 548.65 487.418 551.835 489.49 554.851C496.232 564.668 501.591 571.704 506.9 582.705C506.928 579.389 506.708 576.316 508.341 573.314C508.608 612.923 511.73 651.629 517.359 690.821C519.703 707.144 522.214 723.898 525.895 739.978C523.181 743.238 523.82 748.197 524.191 752.205C528.198 795.569 540.362 836.737 554.079 877.839C562.382 902.718 570.953 926.909 581.931 950.772C583.056 953.217 591.862 971.526 591.683 972.073C591.547 972.491 591.15 972.774 590.884 973.124L589.593 972.786C589.783 972.219 589.697 972.594 589.654 971.636C571.882 960.086 552.859 913.225 542.483 894.3C540.842 890.875 538.415 887.745 536.21 884.669C525.852 850.329 514.938 816.434 506.411 781.561Q501.382 760.57 497.425 739.35Q493.469 718.131 490.596 696.738Q487.722 675.345 485.939 653.833Q484.157 632.322 483.469 610.748C482.725 588.982 481.793 567.42 483.489 545.669Z"/>
	<path fill="#677723" d="M75.4047 276.531C89.6904 281.992 103.592 288.504 117.82 294.152C156.458 309.489 197.39 322.996 215.849 364.248C228.055 391.527 228.104 423.496 222.448 452.35C227.854 465.49 232.461 478.43 235.512 492.333C232.062 484.493 228.86 476.512 225.234 468.756C223.303 464.625 220.06 459.837 218.845 455.59L218.676 455.146C216.05 448.071 210.096 439.878 204.39 434.934C199.95 428.613 195.484 421.232 189.363 416.408C179.71 408.8 128.42 392.655 114.575 388.408L115.157 387.573C114.559 387.304 113.965 387.032 113.382 386.731C108.82 384.375 95.9081 357.227 93.9088 350.832L93.0866 349.35C93.0336 349.265 92.9661 349.187 92.9276 349.094C91.3133 345.212 84.2874 320.729 85.5366 317.088C84.5385 316.397 83.4521 315.834 82.3946 315.238L85.2182 315.273C81.8788 308.631 81.0012 297.396 82.1682 290.119C81.6217 286.061 75.1354 281.513 74.9279 278.384L75.4047 276.531Z"/>
	<path fill="#3C4005" d="M74.9279 278.384C77.5917 279.544 138.388 348.484 147.006 357.834C144.782 347.322 142.684 336.741 140.04 326.326C138.014 318.341 135.385 310.356 133.725 302.302C142.127 321.624 147.154 340.095 149.163 361.07C159.682 371.721 169.344 383.273 178.855 394.827L176.109 349.203C175.674 342.412 173.913 333.886 175.146 327.223C177.239 334.283 177.721 342.659 178.474 349.999C180.123 366.08 181.128 382.232 182.618 398.33C189.64 406.87 196.749 415.378 202.851 424.616C203.769 412.807 204.194 396.624 207.079 385.508L207.928 385.062L207.044 385.636L207.766 384.773C209.976 390.493 209.546 425.733 209.501 434.153C214.262 439.948 218.314 446.103 222.448 452.35C227.854 465.49 232.461 478.43 235.512 492.333C232.062 484.493 228.86 476.512 225.234 468.756C223.303 464.625 220.06 459.837 218.845 455.59L218.676 455.146C216.05 448.071 210.096 439.878 204.39 434.934C199.95 428.613 195.484 421.232 189.363 416.408C179.71 408.8 128.42 392.655 114.575 388.408L115.157 387.573C114.559 387.304 113.965 387.032 113.382 386.731C108.82 384.375 95.9081 357.227 93.9088 350.832L93.0866 349.35C93.0336 349.265 92.9661 349.187 92.9276 349.094C91.3133 345.212 84.2874 320.729 85.5366 317.088C84.5385 316.397 83.4521 315.834 82.3946 315.238L85.2182 315.273C81.8788 308.631 81.0012 297.396 82.1682 290.119C81.6217 286.061 75.1354 281.513 74.9279 278.384Z"/>
	<path fill="#677723" d="M82.1682 290.119C92.1325 302.432 102.639 314.329 112.913 326.385C103.685 322.547 94.808 318.19 85.2182 315.273C81.8788 308.631 81.0012 297.396 82.1682 290.119Z"/>
	<path fill="#677723" d="M85.5366 317.088C94.6202 321.141 104.848 323.962 113.389 329.045C122.846 334.673 129.624 345.126 136.832 353.26C142.036 359.133 147.503 364.807 152.612 370.755C134.695 363.944 111.395 353.51 93.0866 349.35C93.0336 349.265 92.9661 349.187 92.9276 349.094C91.3133 345.212 84.2874 320.729 85.5366 317.088Z"/>
	<path fill="#677723" d="M93.9088 350.832C107.915 355.901 148.29 369.147 157.57 377.71C167.059 386.467 175.771 400.175 184.526 410.123C170.936 405.149 157.469 400.019 143.619 395.791C134.296 392.945 124.251 390.969 115.157 387.573C114.559 387.304 113.965 387.032 113.382 386.731C108.82 384.375 95.9081 357.227 93.9088 350.832Z"/>
	<path fill="#EC6B12" d="M693.538 189.49C697.538 189.023 701.564 188.848 705.583 188.626C723.045 189.188 740.789 196.999 752.816 209.734C770.212 228.154 778.244 254.067 777.482 279.059C776.523 310.529 763.462 342.007 740.224 363.568Q736.165 367.299 731.856 370.738C729.961 366.519 729.312 361.732 726.452 357.96C709.731 336.572 683.153 330.838 657.974 325.597C631.065 321.597 605.469 320.91 578.42 324.354C572.673 325.085 566.235 325.54 560.704 327.248C561.365 324.922 561.803 322.689 562.148 320.303L562.031 318.188C562.202 316.391 562.142 314.557 562.156 312.752L562.117 311.308L561.879 306.896C571.981 301.743 582.383 297.474 592.569 292.548C613.313 282.515 634.411 269.39 650.578 252.854C666.037 239.544 690.954 209.472 693.538 189.49Z"/>
	<path fill="#FDC835" d="M715.638 278.728C710.005 282.484 701.757 284.3 695.315 286.421C670.972 294.436 646.111 300.892 621.285 307.221C610.409 309.994 598.925 311.99 588.291 315.511C579.536 316.715 570.828 318.636 562.148 320.303L562.031 318.188C581.599 315.529 603.877 309.525 623.215 304.606C642.581 299.68 661.969 295.028 681.191 289.534C692.777 286.222 704.161 282.389 715.638 278.728Z"/>
	<path fill="#FDC835" d="M703.813 233.641C699.282 240.518 691.905 245.687 685.543 250.796C652.975 276.948 619.615 293.571 580.353 307.165C577.224 308.248 565.955 312.702 563.256 312.928C562.733 312.972 562.596 312.892 562.156 312.752L562.117 311.308C569.891 309.813 578.127 306.342 585.539 303.521C612.248 293.354 637.016 281.315 661.28 266.186C665.489 263.561 670.71 261.06 674.075 257.422C682.486 253.879 696.503 240.163 703.813 233.641Z"/>
	<path fill="#F28315" d="M736.443 239.05C739.402 238.727 742.134 238.769 744.934 239.904C748.619 241.398 751.337 244.306 752.82 247.966C754.514 252.146 754.58 257.032 752.611 261.131C750.237 266.073 746.322 268.068 741.405 269.736Q740.178 269.862 738.945 269.814Q737.712 269.765 736.498 269.543Q735.285 269.321 734.114 268.93Q732.944 268.539 731.841 267.986Q731.185 267.65 730.565 267.251Q729.946 266.853 729.368 266.395Q728.79 265.938 728.26 265.426Q727.729 264.914 727.252 264.353Q726.774 263.792 726.354 263.187Q725.933 262.582 725.574 261.938Q725.214 261.295 724.92 260.62Q724.625 259.944 724.398 259.243Q724.143 258.461 723.97 257.658Q723.797 256.854 723.707 256.037Q723.617 255.219 723.611 254.397Q723.605 253.575 723.683 252.757Q723.762 251.938 723.924 251.132Q724.085 250.326 724.329 249.541Q724.573 248.755 724.896 247.999Q725.218 247.243 725.617 246.524C728.133 242.082 731.801 240.429 736.443 239.05Z"/>
	<path fill="#C03801" d="M588.291 315.511C588.437 315.541 588.582 315.576 588.728 315.603C595.974 316.957 609.99 314.458 618.01 314.16C651.989 312.895 699.847 316.748 721.276 346.624C723.549 349.794 726.253 353.997 726.452 357.96C709.731 336.572 683.153 330.838 657.974 325.597C631.065 321.597 605.469 320.91 578.42 324.354C572.673 325.085 566.235 325.54 560.704 327.248C561.365 324.922 561.803 322.689 562.148 320.303C570.828 318.636 579.536 316.715 588.291 315.511Z"/>
	<path fill="#C03801" d="M693.538 189.49C697.538 189.023 701.564 188.848 705.583 188.626C708.546 199.112 697.713 225.226 692.345 234.746C687.677 243.025 677.49 249.224 674.075 257.422C670.71 261.06 665.489 263.561 661.28 266.186C637.016 281.315 612.248 293.354 585.539 303.521C578.127 306.342 569.891 309.813 562.117 311.308L561.879 306.896C571.981 301.743 582.383 297.474 592.569 292.548C613.313 282.515 634.411 269.39 650.578 252.854C666.037 239.544 690.954 209.472 693.538 189.49Z"/>
	<path fill="#FDC835" d="M484.651 344.568L489.588 349.253C494.403 352.402 499.025 355.222 504.391 357.363C505.438 357.678 506.482 358.04 507.556 358.245C508.98 358.53 510.426 358.911 511.876 358.994L514.667 359.337Q510.676 383.633 505.529 407.711C503.869 415.709 502.578 424.283 499.713 431.939C504.549 433.364 510.294 432.792 515.241 432.285C539.441 429.805 557.235 422.484 578.188 439.529C582.205 451.032 584.769 462.379 579.285 473.936Q577.44 477.776 575.17 481.38C562.844 496.927 543.696 508.46 524.765 514.107C520.798 515.29 513.353 516.026 510.198 518.496C502.025 519.627 492.728 521.41 484.537 520.221C481.151 519.601 477.329 519.758 473.874 519.582C467.898 519.278 462.071 518.678 456.205 517.456C429.025 511.793 399.372 495.226 384.039 471.623C375.377 458.29 371.546 444.358 374.928 428.701C375.645 420.537 376.544 411.824 371.008 404.955C365.344 397.927 356.788 397.29 348.51 396.478C352.514 393.765 357.566 392.295 361.831 389.931C371.417 384.618 380.675 378.329 390.032 372.603C395.305 370.079 400.277 366.885 405.582 364.361C431.688 351.939 455.717 345.889 484.651 344.568Z"/>
	<path fill="#F6A814" d="M489.588 349.253C494.403 352.402 499.025 355.222 504.391 357.363C505.438 357.678 506.482 358.04 507.556 358.245C508.98 358.53 510.426 358.911 511.876 358.994L514.667 359.337Q510.676 383.633 505.529 407.711C503.869 415.709 502.578 424.283 499.713 431.939L498.218 432.424C496.848 432.83 495.332 432.885 493.906 432.938C490.751 433.054 482.525 433.182 480.306 430.644C479.816 430.083 480.173 429.227 480.259 428.546L479.718 427.909C479.502 428.565 479.091 429.903 478.481 430.232C474.395 432.431 461.151 427.558 456.536 426.051C459.838 420.451 481.27 384.266 480.787 380.732L480.285 381.046L479.922 380.998C478.41 383.552 477.652 386.781 476.182 389.482C474.098 393.311 471.436 396.791 469.287 400.587C464.569 408.918 460.541 417.624 455.35 425.69C450.046 423.692 444.556 422.258 439.071 420.86C441.023 419.17 442.524 412.972 443.636 410.287C445.957 404.682 448.813 399.059 452.177 394.004C458.825 384.013 466.048 374.077 474.156 365.202C478.992 359.907 484.418 355.166 489.2 349.821L489.588 349.253Z"/>
	<path fill="#F6A814" d="M504.391 357.363C505.438 357.678 506.482 358.04 507.556 358.245C508.98 358.53 510.426 358.911 511.876 358.994L514.667 359.337Q510.676 383.633 505.529 407.711C503.869 415.709 502.578 424.283 499.713 431.939L498.218 432.424C496.848 432.83 495.332 432.885 493.906 432.938C490.751 433.054 482.525 433.182 480.306 430.644C479.816 430.083 480.173 429.227 480.259 428.546L479.718 427.909C482.44 421.977 484.411 415.228 486.679 409.079Q496.106 383.417 504.391 357.363Z"/>
	<path fill="#FEEB68" d="M504.391 357.363C505.438 357.678 506.482 358.04 507.556 358.245C505.992 364.425 503.233 370.509 500.921 376.447Q494.28 393.359 487.455 410.198C485.09 416.09 483.236 423.005 480.259 428.546L479.718 427.909C482.44 421.977 484.411 415.228 486.679 409.079Q496.106 383.417 504.391 357.363Z"/>
	<path fill="#FEEB68" d="M511.876 358.994L514.667 359.337Q510.676 383.633 505.529 407.711C503.869 415.709 502.578 424.283 499.713 431.939L498.218 432.424C499.632 421.187 502.571 409.562 504.843 398.437C507.52 385.33 509.738 372.197 511.876 358.994Z"/>
	<path fill="#FEEB68" d="M464.209 449.229C481.097 449.576 499.297 454.066 512.708 464.847C518.277 469.323 523.311 475.484 523.949 482.865C524.326 487.226 522.863 491.217 519.904 494.422C511.514 503.512 495.474 505.323 483.771 505.647C466.833 505.675 446.804 501.694 433.36 490.728C428.481 486.749 424.474 481.182 424.003 474.735Q423.967 474.29 423.954 473.844Q423.94 473.399 423.95 472.953Q423.959 472.507 423.991 472.062Q424.023 471.617 424.078 471.174Q424.132 470.731 424.21 470.292Q424.287 469.852 424.386 469.417Q424.486 468.983 424.607 468.553Q424.729 468.124 424.872 467.702Q425.015 467.279 425.18 466.864Q425.344 466.45 425.529 466.044Q425.715 465.638 425.921 465.242Q426.127 464.847 426.352 464.462Q426.578 464.077 426.823 463.704Q427.068 463.332 427.332 462.972Q427.596 462.612 427.877 462.266Q428.159 461.92 428.458 461.589C436.942 452.033 452.192 449.675 464.209 449.229Z"/>
	<path fill="#C03801" d="M484.651 344.568L489.588 349.253L489.2 349.821C484.418 355.166 478.992 359.907 474.156 365.202C466.048 374.077 458.825 384.013 452.177 394.004C448.813 399.059 445.957 404.682 443.636 410.287C442.524 412.972 441.023 419.17 439.071 420.86C427.995 417.059 416.994 415.257 405.446 413.725C396.884 413.183 389.136 414.283 382.361 420.157C379.481 422.653 377.236 425.693 374.928 428.701C375.645 420.537 376.544 411.824 371.008 404.955C365.344 397.927 356.788 397.29 348.51 396.478C352.514 393.765 357.566 392.295 361.831 389.931C371.417 384.618 380.675 378.329 390.032 372.603C395.305 370.079 400.277 366.885 405.582 364.361C431.688 351.939 455.717 345.889 484.651 344.568Z"/>
	<path fill="#EC6B12" d="M405.446 413.725C409.312 407.345 413.242 401.124 417.911 395.289C432.322 377.281 454.267 358.53 476.664 351.925C480.766 350.715 484.965 350.278 489.2 349.821C484.418 355.166 478.992 359.907 474.156 365.202C466.048 374.077 458.825 384.013 452.177 394.004C448.813 399.059 445.957 404.682 443.636 410.287C442.524 412.972 441.023 419.17 439.071 420.86C427.995 417.059 416.994 415.257 405.446 413.725Z"/>
	<path fill="#455412" d="M638.223 851.07C645.517 829.304 664.122 814.471 684.128 804.5C717.759 787.737 759.5 787.522 794.772 799.481C820.331 808.146 841.063 825.936 864.956 837.99C872.357 841.723 880.145 845.101 887.986 847.798C891.741 849.09 897.457 849.956 900.71 851.694C900.346 852.125 899.903 852.776 899.455 853.107C890.042 863.48 878.642 872.98 867.7 881.716C834.986 907.837 795.989 932.281 752.929 934.378C720.827 935.941 690.988 924.886 667.324 903.147C652.911 889.906 641.871 873.426 637.809 854.092C623.816 860.021 608.672 866.068 596.335 875.077L595.978 873.628C608.588 863.997 623.775 857.428 638.223 851.07Z"/>
	<path fill="#677723" d="M703.049 844.693C713.342 843.64 742.779 843.98 752.766 846.677C768.084 850.815 785.848 867.354 794.498 880.218C798.089 885.558 800.546 891.469 803.779 897.011L798.383 898.37C785.375 901.551 772.543 903.268 759.223 904.57C757.655 899.513 756.006 894.509 753.87 889.658C743.518 866.135 726.444 853.679 703.049 844.693Z"/>
	<path fill="#677723" d="M688.825 845.23C695.919 845.085 702.433 846.569 708.931 849.37C734.722 860.489 748.093 879.134 758.064 904.49C745.723 904.696 732.811 903.267 720.9 900.087C690.94 890.942 670.875 869.97 646.42 851.967C659.755 847.819 674.905 845.945 688.825 845.23Z"/>
	<path fill="#677723" d="M638.223 851.07C645.517 829.304 664.122 814.471 684.128 804.5C717.759 787.737 759.5 787.522 794.772 799.481C820.331 808.146 841.063 825.936 864.956 837.99C872.357 841.723 880.145 845.101 887.986 847.798C891.741 849.09 897.457 849.956 900.71 851.694C900.346 852.125 899.903 852.776 899.455 853.107C894.785 852.51 874.64 866.898 868.92 870.038C848.58 881.206 826.927 889.721 804.901 896.862C801.775 891.225 799.275 885.238 796.052 879.661C786.997 863.987 772.799 854.915 757.428 846.326C771.024 847.042 806.293 849.882 817.389 855.108C817.696 855.253 817.984 855.435 818.281 855.599L818.534 855.37C816.002 854.099 812.58 853.456 810.399 851.721C810.188 851.553 809.984 851.374 809.777 851.201L808.051 849.39C804.117 847.659 777.29 845.989 771.223 845.606C767.739 845.386 762.734 845.726 759.544 844.404L759.04 842.724C753.03 843.376 716.197 843.204 712.475 840.952L711.508 840.106C701.94 843.345 684.692 841.935 673.787 843.334C670.299 843.781 658.55 846.369 656.049 845.347C652.592 845.891 646.172 848.591 643.514 848.386C641.769 849.302 640.035 850.294 638.223 851.07Z"/>
	<path fill="#3C4005" d="M812.672 808.366C805.794 820.061 788.089 834.774 775.166 839.444C770.32 841.195 763.963 841.962 759.544 844.404L759.04 842.724C775.166 838.206 789.269 830.506 801.724 819.247C805.553 815.786 808.922 811.888 812.672 808.366Z"/>
	<path fill="#3C4005" d="M808.051 849.39C816.572 849.703 822.815 848.639 830.978 846.385C833.172 845.78 841.52 840.717 842.57 841.184C840.717 844.539 829.408 848.057 825.643 849.154Q823.15 849.87 820.634 850.502L821.357 850.639C835.235 853.207 851.374 854.362 865.561 854.76C872.541 854.956 879.672 854.594 886.617 855.146C886.397 855.133 886.177 855.113 885.957 855.108C884.499 855.071 885.901 855.051 884.477 855.43C881.736 856.161 877.381 855.864 874.483 855.929C862.536 856.193 850.436 855.305 838.581 853.872C829.069 852.721 819.382 850.905 809.777 851.201L808.051 849.39Z"/>
	<path fill="#3C4005" d="M711.508 840.106C727.812 832.301 745.306 821.755 758.181 808.942C763.26 803.887 766.777 797.729 772.379 793.125C761.887 810.974 746.555 823.171 728.498 832.739C723.264 835.512 717.481 837.855 712.475 840.952L711.508 840.106Z"/>
	<path fill="#3C4005" d="M643.514 848.386C665.242 837.574 686.513 828.627 704.34 811.437C710.077 805.905 714.99 799.723 720.227 793.741C710.4 817.167 678.622 835.66 656.049 845.347C652.592 845.891 646.172 848.591 643.514 848.386Z"/>
	<path fill="#FDC835" d="M530.761 105.303C546.857 88.4239 566.571 79.2369 590.092 78.595C616.26 77.8809 641.841 91.3444 660.273 109.093C679.906 127.998 693.607 151.581 694 179.336C694.047 182.695 694.001 186.158 693.538 189.49C690.954 209.472 666.037 239.544 650.578 252.854C634.411 269.39 613.313 282.515 592.569 292.548C582.383 297.474 571.981 301.743 561.879 306.896C560.396 301.806 558.694 296.895 556.78 291.954L555.775 290.54C553.893 288.027 551.767 285.647 549.757 283.232L547.597 281.215C545.798 280.343 544.069 278.862 542.423 277.708L539.573 276.213Q535.528 274.283 531.264 272.905Q526.999 271.527 522.59 270.725C525.794 262.321 529.794 254.351 532.709 245.803C544.533 211.124 543.866 177.377 540.245 141.345C538.486 129.588 536.976 116.474 531.231 105.927L530.761 105.303Z"/>
	<path fill="#FEEB68" d="M620.282 92.1861C629.034 92.6271 636.068 95.2788 643.058 100.572C652.59 107.791 662.175 120.084 663.622 132.313C664.027 135.731 663.594 139.307 661.357 142.051C658.699 145.312 654.819 146.452 650.79 146.753C641.359 146.442 633.613 143.185 626.137 137.473C616.9 130.415 607.69 118.591 606.409 106.669C606.03 103.136 606.605 99.6047 608.999 96.8567C612.01 93.4002 615.956 92.5278 620.282 92.1861Z"/>
	<path fill="#F6A814" d="M540.245 141.345C546.728 141.891 553.393 142.407 559.778 143.683Q561.939 144.117 564.081 144.64Q566.222 145.164 568.339 145.777Q570.457 146.39 572.547 147.09Q574.637 147.791 576.696 148.579Q578.755 149.366 580.779 150.239Q582.803 151.113 584.789 152.069Q586.775 153.026 588.719 154.066Q590.663 155.105 592.562 156.224Q594.461 157.344 596.311 158.542Q598.162 159.74 599.961 161.014Q601.759 162.289 603.503 163.637Q605.247 164.986 606.933 166.406Q608.619 167.826 610.244 169.316Q611.869 170.805 613.43 172.361Q614.991 173.918 616.486 175.538Q617.981 177.158 619.407 178.839C631.227 192.851 640.269 210.834 644.896 228.566C646.348 234.13 648.022 249.305 650.578 252.854C634.411 269.39 613.313 282.515 592.569 292.548C582.383 297.474 571.981 301.743 561.879 306.896C560.396 301.806 558.694 296.895 556.78 291.954L555.775 290.54C553.893 288.027 551.767 285.647 549.757 283.232L547.597 281.215C545.798 280.343 544.069 278.862 542.423 277.708L539.573 276.213Q535.528 274.283 531.264 272.905Q526.999 271.527 522.59 270.725C525.794 262.321 529.794 254.351 532.709 245.803C544.533 211.124 543.866 177.377 540.245 141.345Z"/>
	<path fill="#FEEB68" d="M555.775 290.54C559.148 286.22 565.03 282.792 569.416 279.363C574.143 275.668 578.848 271.803 583.254 267.727C590.326 261.184 597.431 254.58 604.092 247.618C608.735 242.765 612.976 237.422 617.952 232.911C607.651 250.01 583.927 270.73 568.006 283.492C564.483 286.316 560.729 289.782 556.78 291.954L555.775 290.54Z"/>
	<path fill="#FEEB68" d="M575.317 181.886C573.114 209.658 562.214 236.669 550.543 261.733C548.203 266.758 545.74 273.287 542.423 277.708L539.573 276.213C543.549 266.752 548.906 257.877 552.835 248.382C558.688 234.237 564.484 219.754 569.043 205.129C571.43 197.471 572.951 189.549 575.317 181.886Z"/>
	<path fill="#FEEB68" d="M610.065 174.057C607.562 182.802 603.176 191.59 599.17 199.757Q584.019 230.46 565.358 259.165C560.278 267.118 554.153 274.937 549.757 283.232L547.597 281.215C549.359 276.185 553.401 271.099 556.365 266.647Q573.494 241.345 588.156 214.538L602.591 187.44C604.983 182.997 607.214 178.216 610.065 174.057Z"/>
	<path fill="#FDC835" d="M340.638 204.311C361.521 203.538 373.452 205.899 393.051 213.023C432.805 229.65 457.952 255.002 483.637 289.019C481.049 293.02 479.061 297.308 476.999 301.592L475.739 305.839C475.508 307.624 475.334 309.438 475.034 311.212L474.344 314.506C474.39 315.572 474.494 316.666 474.465 317.731C474.801 320.337 475.062 322.964 475.697 325.518C477.85 332.605 480.461 338.451 484.651 344.568C455.717 345.889 431.688 351.939 405.582 364.361C400.277 366.885 395.305 370.079 390.032 372.603C380.675 378.329 371.417 384.618 361.831 389.931C357.566 392.295 352.514 393.765 348.51 396.478C338.023 397.499 327.922 396.762 318.054 392.91C298.295 385.199 283.167 367.536 274.94 348.393C263.082 320.801 262.765 287.142 273.94 259.258C282.503 237.888 300.312 218.366 321.886 209.807C324.543 208.752 327.225 207.716 329.992 206.984C333.112 206.159 337.293 205.985 340.138 204.604C340.312 204.52 340.472 204.409 340.638 204.311Z"/>
	<path fill="#FEEB68" d="M308.574 232.648C313.109 232.689 316.931 234.268 320.156 237.468C329.244 246.488 330.698 263.715 330.598 275.746C330.483 289.748 327.757 309.21 316.961 319.368C312.666 323.408 307.894 324.921 302.081 324.777C300.051 324.151 298.011 323.477 296.182 322.377C288.089 317.512 283.803 308.888 281.537 300.037C277.174 282.997 279.488 263.413 288.615 248.258C293.293 240.49 299.652 234.889 308.574 232.648Z"/>
	<path fill="#F6A814" d="M393.051 213.023C432.805 229.65 457.952 255.002 483.637 289.019C481.049 293.02 479.061 297.308 476.999 301.592L475.739 305.839C475.508 307.624 475.334 309.438 475.034 311.212L474.344 314.506C474.39 315.572 474.494 316.666 474.465 317.731C474.801 320.337 475.062 322.964 475.697 325.518C477.85 332.605 480.461 338.451 484.651 344.568C455.717 345.889 431.688 351.939 405.582 364.361C400.277 366.885 395.305 370.079 390.032 372.603C387.741 366.925 383.523 361.532 380.588 356.096Q378.99 353.187 377.533 350.204Q376.077 347.222 374.765 344.173Q373.453 341.124 372.289 338.015Q371.126 334.907 370.113 331.746Q369.1 328.585 368.24 325.379Q367.38 322.173 366.674 318.93Q365.969 315.686 365.421 312.413Q364.873 309.139 364.482 305.843C360.568 270.297 370.903 240.581 393.051 213.023Z"/>
	<path fill="#FEEB68" d="M474.344 314.506C461.714 307.818 450.484 299.461 438.438 291.901C432.097 287.922 424.533 284.997 418.768 280.252C430.307 285.604 441.364 292.004 452.28 298.521C459.689 302.944 466.979 308.032 475.034 311.212L474.344 314.506Z"/>
	<path fill="#FEEB68" d="M475.739 305.839C458.225 288.516 440.589 272.04 420.568 257.632C427.386 257.897 469.373 294.573 476.999 301.592L475.739 305.839Z"/>
	<path fill="#FEEB68" d="M474.797 321.671C455.11 318.536 435.979 311.557 416.718 306.408C412.478 305.274 408.188 304.024 403.883 303.175C399.671 302.344 395.836 302.108 391.702 300.758L391.764 300.437C392.599 300.409 393.278 300.406 394.091 300.628C397.001 301.423 399.854 301.327 402.77 301.916C409.97 303.371 417.202 304.815 424.379 306.389L455.438 313.408C461.827 314.904 467.957 316.677 474.465 317.731C474.801 320.337 475.062 322.964 475.697 325.518C458.708 329.879 436.69 332.458 419.105 334.195C412.157 334.881 405.155 334.899 398.259 336C401.22 334.037 406.228 333.994 409.732 333.515C431.66 330.522 453.057 325.647 474.797 321.671Z"/>
	<path fill="#EC6B12" d="M340.456 202.077C340.201 191.787 339.131 183.099 340.293 172.609C343.859 140.431 360.661 112.22 385.845 92.1907C409.021 73.7573 440.38 63.2157 470.086 66.6901C498.043 69.9598 514.066 84.1174 530.761 105.303L531.231 105.927C536.976 116.474 538.486 129.588 540.245 141.345C543.866 177.377 544.533 211.124 532.709 245.803C529.794 254.351 525.794 262.321 522.59 270.725L514.146 271.013C511.206 271.633 508.253 272.218 505.326 272.891L503.998 273.117C500.72 274.825 497.289 276.432 494.247 278.532L491.637 280.601L488.216 284.064L485.594 286.681L483.637 289.019C457.952 255.002 432.805 229.65 393.051 213.023C373.452 205.899 361.521 203.538 340.638 204.311L340.456 202.077Z"/>
	<path fill="#FEEB68" d="M503.998 273.117C504.077 260.374 506.036 247.57 506.404 234.792C506.574 228.88 506.635 222.915 506.356 217.005C506.152 212.681 505.56 208.282 505.709 203.958C505.92 204.809 506.11 205.669 506.343 206.513C507.448 210.528 507.451 214.825 507.777 218.972C509.196 237.021 509.14 255.089 505.326 272.891L503.998 273.117Z"/>
	<path fill="#FDC835" d="M467.383 259.021C467.343 258.869 467.306 258.715 467.263 258.563C465.692 252.946 462.172 247.488 459.172 242.498C448.715 225.102 436.89 209.844 420.793 197.306C417.249 194.545 413.685 191.667 409.738 189.503C407.547 188.301 403.184 186.793 402.141 184.555L402.579 184.393L402.014 184.911L402.48 184.524C405.523 185.811 408.022 187.876 410.882 189.483C435.988 203.589 453.877 225.52 466.485 251.027C468.431 254.964 470.695 259.01 472.271 263.106C472.846 264.601 472.832 266.064 472.749 267.636L467.383 259.021Z"/>
	<path fill="#FDC835" d="M491.637 280.601C489.769 244.926 484.34 210.912 474.637 176.522L473.78 176.551L474.421 175.255L474.162 174.521C477.02 178.587 478.155 185.389 479.615 190.182C488.307 218.717 494.155 248.581 494.247 278.532L491.637 280.601Z"/>
	<path fill="#FDC835" d="M485.069 286.024C483.126 276.362 479.82 266.766 477.02 257.314C468.937 230.029 458.68 199.33 445.093 174.326C441.33 167.4 436.992 160.904 432.621 154.35L432.847 154.379L432.706 154.165L433.389 155.215L434.017 154.767L433.812 155.155C455.427 181.194 468.592 219.172 478.182 251.124C481.507 262.202 483.018 273.62 488.216 284.064L485.594 286.681L485.069 286.024Z"/>
	<path fill="#C03801" d="M340.456 202.077C351.405 196.117 377.608 200.336 389.35 203.848C412.227 210.69 434.93 224.853 451.759 241.828C456.938 247.053 461.54 254.689 467.383 259.021L472.749 267.636C476.516 273.973 481 279.877 485.069 286.024L485.594 286.681L483.637 289.019C457.952 255.002 432.805 229.65 393.051 213.023C373.452 205.899 361.521 203.538 340.638 204.311L340.456 202.077Z"/>
	<path fill="#C03801" d="M514.146 271.013C516.665 262.743 520.663 255.074 523.273 246.866C532.782 216.968 538.494 180.893 536.799 149.509Q536.362 140.968 535.068 132.515C533.831 124.893 530.056 113.269 531.231 105.927C536.976 116.474 538.486 129.588 540.245 141.345C543.866 177.377 544.533 211.124 532.709 245.803C529.794 254.351 525.794 262.321 522.59 270.725L514.146 271.013Z"/>
	<path fill="#F28315" d="M423.948 96.1003C428.918 95.7368 433.67 95.9634 438.239 98.2387Q438.687 98.4618 439.124 98.7069Q439.561 98.952 439.985 99.2186Q440.409 99.4851 440.819 99.7724Q441.229 100.06 441.625 100.367Q442.02 100.674 442.4 101.001Q442.78 101.328 443.143 101.673Q443.506 102.018 443.851 102.38Q444.196 102.743 444.523 103.123Q444.85 103.502 445.158 103.897Q445.465 104.292 445.753 104.702Q446.041 105.112 446.307 105.536Q446.574 105.96 446.82 106.397Q447.065 106.833 447.289 107.281Q447.512 107.73 447.713 108.188Q447.914 108.647 448.092 109.115Q448.27 109.584 448.424 110.06C450.355 115.986 449.531 122.625 446.488 128.037C443.158 133.959 438.153 136.407 431.915 138.226C426.843 139.041 421.188 137.945 416.742 135.391Q416.269 135.116 415.81 134.817Q415.351 134.518 414.909 134.197Q414.466 133.875 414.04 133.531Q413.614 133.188 413.206 132.823Q412.798 132.458 412.409 132.072Q412.02 131.687 411.651 131.283Q411.282 130.878 410.935 130.456Q410.587 130.033 410.261 129.593Q409.935 129.153 409.632 128.698Q409.329 128.242 409.049 127.771Q408.77 127.301 408.514 126.816Q408.259 126.332 408.029 125.836Q407.798 125.339 407.593 124.832Q407.389 124.324 407.21 123.807Q407.031 123.289 406.879 122.764Q406.726 122.238 406.601 121.705Q406.476 121.213 406.375 120.715Q406.275 120.217 406.199 119.714Q406.123 119.212 406.073 118.706Q406.022 118.201 405.997 117.693Q405.971 117.186 405.971 116.678Q405.971 116.17 405.996 115.662Q406.022 115.155 406.072 114.649Q406.122 114.144 406.198 113.641Q406.273 113.139 406.373 112.641Q406.474 112.142 406.599 111.65Q406.724 111.158 406.873 110.672Q407.022 110.186 407.195 109.709Q407.369 109.231 407.566 108.763Q407.762 108.294 407.982 107.836Q408.202 107.378 408.444 106.932Q408.687 106.485 408.951 106.051C412.346 100.493 417.859 97.6716 423.948 96.1003Z"/>
	<path fill="#F28315" d="M514.146 271.013L522.59 270.725Q526.999 271.527 531.264 272.905Q535.528 274.283 539.573 276.213L542.423 277.708C544.069 278.862 545.798 280.343 547.597 281.215L549.757 283.232C551.767 285.647 553.893 288.027 555.775 290.54L556.78 291.954C558.694 296.895 560.396 301.806 561.879 306.896L562.117 311.308L562.156 312.752C562.142 314.557 562.202 316.391 562.031 318.188L562.148 320.303C561.803 322.689 561.365 324.922 560.704 327.248C566.235 325.54 572.673 325.085 578.42 324.354C605.469 320.91 631.065 321.597 657.974 325.597C683.153 330.838 709.731 336.572 726.452 357.96C729.312 361.732 729.961 366.519 731.856 370.738C731.736 370.93 731.597 371.111 731.497 371.314C730.391 373.569 731.872 394.254 731.649 399.029C729.7 440.791 700.124 479 662.292 495.081C645.246 502.327 623.289 506.996 605.026 502.04C592.445 498.029 582.99 492.156 575.17 481.38Q577.44 477.776 579.285 473.936C584.769 462.379 582.205 451.032 578.188 439.529C557.235 422.484 539.441 429.805 515.241 432.285C510.294 432.792 504.549 433.364 499.713 431.939C502.578 424.283 503.869 415.709 505.529 407.711Q510.676 383.633 514.667 359.337L511.876 358.994C510.426 358.911 508.98 358.53 507.556 358.245C506.482 358.04 505.438 357.678 504.391 357.363C499.025 355.222 494.403 352.402 489.588 349.253L484.651 344.568C480.461 338.451 477.85 332.605 475.697 325.518C475.062 322.964 474.801 320.337 474.465 317.731C474.494 316.666 474.39 315.572 474.344 314.506L475.034 311.212C475.334 309.438 475.508 307.624 475.739 305.839L476.999 301.592C479.061 297.308 481.049 293.02 483.637 289.019L485.594 286.681L488.216 284.064L491.637 280.601L494.247 278.532C497.289 276.432 500.72 274.825 503.998 273.117L505.326 272.891C508.253 272.218 511.206 271.633 514.146 271.013Z"/>
	<path fill="#FDC835" d="M687.255 388.044C690.265 387.959 693.032 387.98 695.775 389.379C699.344 391.199 701.626 394.266 702.805 398.052C705.869 407.885 702.44 419.886 697.739 428.635C693.181 437.119 687.023 443.082 677.685 445.901L676.839 445.979C674.141 446.248 671.906 446.201 669.37 445.107C666.198 443.738 664.072 441.285 662.879 438.068C659.612 429.252 662.549 417.825 666.401 409.653C670.873 400.165 677.082 391.697 687.255 388.044Z"/>
	<path fill="#EC6B12" d="M551.347 344.261C558.953 347.678 566.369 352.684 573.501 357.02C583.606 363.163 593.835 369.189 603.555 375.932C611.793 379.968 619.785 385.296 627.434 390.345C631.322 392.911 635.325 396.016 639.54 397.996Q642.32 399.918 645.067 401.888Q641.853 400.568 638.684 399.145C632.958 407.61 625.609 414.099 617.979 420.769Q595.817 396.764 572.499 373.881C565.238 366.869 551.618 355.944 546.04 348.744C546.992 347.781 548.143 346.932 549.187 346.065L551.347 344.261Z"/>
	<path fill="#FDC835" d="M603.555 375.932C611.793 379.968 619.785 385.296 627.434 390.345C631.322 392.911 635.325 396.016 639.54 397.996Q642.32 399.918 645.067 401.888Q641.853 400.568 638.684 399.145C626.401 392.329 613.88 385.514 602.349 377.493L603.555 375.932Z"/>
	<path fill="#FEEB68" d="M551.347 344.261C558.953 347.678 566.369 352.684 573.501 357.02C583.606 363.163 593.835 369.189 603.555 375.932L602.349 377.493C597.739 374.633 592.683 372.308 587.956 369.613C574.888 362.159 561.688 354.429 549.187 346.065L551.347 344.261Z"/>
	<path fill="#C03801" d="M531.151 357.346C533.175 356.63 535.129 355.779 537.098 354.927C570.11 382.398 602.134 426.535 606.268 470.283C607.206 480.216 607.36 492.285 605.026 502.04C592.445 498.029 582.99 492.156 575.17 481.38Q577.44 477.776 579.285 473.936C584.769 462.379 582.205 451.032 578.188 439.529C571.48 415.394 558.963 395.213 544.482 375.039C540.281 369.186 534.568 363.639 531.151 357.346Z"/>
	<path fill="#F6A814" d="M522.872 358.948C525.691 358.569 528.388 358.017 531.151 357.346C534.568 363.639 540.281 369.186 544.482 375.039C558.963 395.213 571.48 415.394 578.188 439.529C557.235 422.484 539.441 429.805 515.241 432.285C510.294 432.792 504.549 433.364 499.713 431.939C502.578 424.283 503.869 415.709 505.529 407.711Q510.676 383.633 514.667 359.337C516.585 359.372 518.551 359.5 520.463 359.327L522.872 358.948Z"/>
	<path fill="#FEEB68" d="M520.463 359.327L522.872 358.948Q523.34 378.74 524.15 398.52C524.571 407.081 525.53 415.776 525.676 424.321C525.699 425.684 525.757 427.164 525.142 428.41L524.819 427.691L524.84 427.724C522.492 404.998 521.551 382.135 520.463 359.327Z"/>
	<defs>
		<linearGradient id="gradient_0" gradientUnits="userSpaceOnUse" x1="555.76898" y1="337.95529" x2="655.35669" y2="363.10806">
			<stop offset="0" stop-color="#F18C0B"/>
			<stop offset="1" stop-color="#E66215"/>
		</linearGradient>
	</defs>
	<path fill="url(#gradient_0)" d="M560.704 327.248C566.235 325.54 572.673 325.085 578.42 324.354C605.469 320.91 631.065 321.597 657.974 325.597C659.744 345.915 658.593 364.5 648.89 382.908C646.211 387.99 641.737 392.806 639.54 397.996C635.325 396.016 631.322 392.911 627.434 390.345C619.785 385.296 611.793 379.968 603.555 375.932C593.835 369.189 583.606 363.163 573.501 357.02C566.369 352.684 558.953 347.678 551.347 344.261L552.27 343.435L552.638 342.782C556.542 338.38 558.912 332.785 560.704 327.248Z"/>
	<path fill="#FEEB68" d="M552.638 342.782C563.461 341.153 627.066 364.167 639.35 369.682C623.074 366.164 607.404 359.053 591.441 354.289C583.515 351.924 575.437 349.9 567.422 347.855C562.419 346.578 556.977 345.598 552.27 343.435L552.638 342.782Z"/>
	<path fill="#1F6F48" d="M514.146 271.013L522.59 270.725Q526.999 271.527 531.264 272.905Q535.528 274.283 539.573 276.213L542.423 277.708C544.069 278.862 545.798 280.343 547.597 281.215L549.757 283.232C551.767 285.647 553.893 288.027 555.775 290.54L556.78 291.954C558.694 296.895 560.396 301.806 561.879 306.896L562.117 311.308L562.156 312.752C562.142 314.557 562.202 316.391 562.031 318.188L562.148 320.303C561.803 322.689 561.365 324.922 560.704 327.248C558.912 332.785 556.542 338.38 552.638 342.782L552.27 343.435L551.347 344.261L549.187 346.065C548.143 346.932 546.992 347.781 546.04 348.744C543.09 350.848 540.162 352.991 537.098 354.927C535.129 355.779 533.175 356.63 531.151 357.346C528.388 358.017 525.691 358.569 522.872 358.948L520.463 359.327C518.551 359.5 516.585 359.372 514.667 359.337L511.876 358.994C510.426 358.911 508.98 358.53 507.556 358.245C506.482 358.04 505.438 357.678 504.391 357.363C499.025 355.222 494.403 352.402 489.588 349.253L484.651 344.568C480.461 338.451 477.85 332.605 475.697 325.518C475.062 322.964 474.801 320.337 474.465 317.731C474.494 316.666 474.39 315.572 474.344 314.506L475.034 311.212C475.334 309.438 475.508 307.624 475.739 305.839L476.999 301.592C479.061 297.308 481.049 293.02 483.637 289.019L485.594 286.681L488.216 284.064L491.637 280.601L494.247 278.532C497.289 276.432 500.72 274.825 503.998 273.117L505.326 272.891C508.253 272.218 511.206 271.633 514.146 271.013Z"/>
	<path fill="#FDC835" d="M525.929 289.555C528.951 289.282 531.535 289.365 534.325 290.685C537.529 292.2 539.83 294.877 540.974 298.22Q541.215 298.911 541.386 299.622Q541.557 300.334 541.656 301.059Q541.755 301.784 541.781 302.515Q541.807 303.246 541.76 303.976Q541.713 304.707 541.594 305.428Q541.474 306.15 541.282 306.857Q541.091 307.563 540.83 308.246Q540.569 308.93 540.241 309.584C537.849 314.249 534.249 315.862 529.566 317.421C526.781 317.631 524.297 317.136 521.743 315.992Q521.079 315.698 520.449 315.337Q519.819 314.976 519.23 314.552Q518.64 314.127 518.098 313.645Q517.555 313.162 517.065 312.626Q516.575 312.09 516.143 311.507Q515.711 310.923 515.341 310.298Q514.971 309.673 514.668 309.013Q514.365 308.354 514.131 307.666Q513.915 307.048 513.761 306.412Q513.608 305.776 513.519 305.128Q513.431 304.479 513.407 303.825Q513.384 303.171 513.427 302.518Q513.47 301.865 513.578 301.22Q513.686 300.574 513.858 299.943Q514.03 299.312 514.265 298.701Q514.5 298.09 514.795 297.506C517.178 292.827 521.173 290.997 525.929 289.555Z"/>
	<path fill="#0C7572" d="M698.718 572.709Q701.887 569.01 704.942 565.216Q707.996 561.422 710.935 557.538Q713.873 553.653 716.692 549.681Q719.511 545.709 722.208 541.653Q724.905 537.597 727.477 533.461Q730.05 529.325 732.496 525.112Q734.941 520.9 737.258 516.616Q739.575 512.331 741.76 507.978Q743.946 503.625 745.998 499.208Q748.05 494.79 749.967 490.313Q751.884 485.835 753.664 481.301Q755.445 476.768 757.086 472.182Q758.728 467.596 760.23 462.963Q761.731 458.329 763.092 453.652Q764.452 448.975 765.67 444.259Q766.887 439.543 767.961 434.792C768.027 448.211 767.373 461.604 766.805 475.007C765.159 513.844 761.554 551.611 751.608 589.305C766.582 580.199 779.661 573.364 797.548 572.346C764.906 597.736 750.563 622.763 740.942 662.55C763.268 651.262 773.991 649.975 798.168 650.386C785.739 657.286 774.3 664.757 764.533 675.242C749.668 691.201 739.899 709.951 722.033 723.258C733.416 719.848 745.768 719.326 757.529 717.743C751.173 727.272 743.297 735.678 734.894 743.43C697.724 777.719 649.451 792.709 600.81 802.451C591.075 804.401 580.986 805.731 571.361 808.135C565.722 820.799 560.83 833.317 556.794 846.582C555.885 845.757 555.392 844.918 554.853 843.813C553.253 840.536 550.398 833.262 551.514 829.849C555.558 821.327 558.897 812.228 562.618 803.533C559.09 795.44 557.028 787.216 554.952 778.672C545.882 741.352 548.251 704.457 562.309 668.692C574.801 636.912 599.706 607.262 629.634 590.801Q623.394 609.653 616.112 628.128C625.764 618.499 636.153 609.695 645.811 600.108C670.203 575.894 685.792 551.193 700.159 520.196C701.827 537.349 703.012 555.826 698.718 572.709Z"/>
	<path fill="#013942" d="M562.618 803.533C567.62 795.879 571.513 787.699 575.92 779.709Q584.085 764.869 594.13 751.231Q608.124 732.459 623.718 714.994C632.131 705.615 640.946 696.571 649.111 686.974C679.476 651.279 708.685 614.063 728.495 571.275C735.196 556.801 741.232 541.774 746.789 526.82C748.368 522.569 749.57 518.265 751.289 514.039L751.602 514.225C748.871 525.169 744.281 535.948 740.15 546.446Q735.884 557.097 731.214 567.577Q726.543 578.057 721.474 588.351Q716.406 598.644 710.946 608.736Q705.487 618.828 699.646 628.703Q693.804 638.578 687.588 648.222Q681.372 657.866 674.792 667.265Q668.211 676.664 661.276 685.804Q654.34 694.944 647.059 703.812C637.004 716.052 626.23 727.676 616.211 739.954Q599.989 759.917 586.346 781.723C580.898 790.306 575.484 798.816 571.361 808.135C565.722 820.799 560.83 833.317 556.794 846.582C555.885 845.757 555.392 844.918 554.853 843.813C553.253 840.536 550.398 833.262 551.514 829.849C555.558 821.327 558.897 812.228 562.618 803.533Z"/>
	<path fill="#0C7572" d="M270.112 638.598C268.166 631.939 266.769 624.917 265.276 618.136C251.967 557.656 253.935 481.654 280.744 424.897C284.417 417.122 289.003 409.981 293.628 402.755C290.48 412.199 287.508 421.541 286.144 431.447C279.483 479.805 298.758 538.632 319.719 581.516C323.387 557.339 334.292 537.235 350.48 519.221C350.065 569.589 375.902 612.811 400.519 654.831C399.495 630.207 397.714 616.756 389.301 593.14C412.221 606.902 432.733 627.502 446.851 650.124C475.525 696.074 488.92 773.908 476.772 826.583C482.396 832.476 487.721 838.64 493.357 844.522Q513.57 865.891 536.21 884.669C538.415 887.745 540.842 890.875 542.483 894.3L540.454 896.558C537.561 893.661 521.832 885.861 516.504 881.892C498.104 868.184 483.306 851.673 467.943 834.773C465.343 836.289 462.508 837.625 459.628 838.502C450.777 841.199 441.085 840.807 431.966 840.105C400.643 837.695 370.683 827.954 342.987 813.268C305.567 793.423 272.24 763.031 254.048 724.245C250.296 716.245 247.56 708.065 244.976 699.642C259.005 706.584 272.811 711.609 287.931 715.725C282.745 710.546 277.433 705.396 272.804 699.704C245.837 666.548 234.916 625.962 230.247 584.339C243.701 606.296 251.986 619.82 270.112 638.598Z"/>
	<path fill="#013942" d="M467.943 834.773C449.927 813.669 429.171 795.29 410.377 774.966C358.459 718.822 315.881 652.222 292.105 579.318C290.074 573.089 283.197 553.563 283.741 547.774C283.758 547.594 283.808 547.418 283.841 547.24L283.4 547.222L283.775 547.07C286.923 555.884 288.697 565.169 291.431 574.128C294.736 584.963 299.401 595.915 304.052 606.254C310.83 621.318 318.705 635.002 327.25 649.096Q339.012 668.698 352.361 687.256Q365.71 705.814 380.554 723.199C399.61 745.449 420.407 766.193 440.628 787.368C452.9 800.219 464.273 813.99 476.772 826.583C482.396 832.476 487.721 838.64 493.357 844.522Q513.57 865.891 536.21 884.669C538.415 887.745 540.842 890.875 542.483 894.3L540.454 896.558C537.561 893.661 521.832 885.861 516.504 881.892C498.104 868.184 483.306 851.673 467.943 834.773Z"/>
</svg>
